<!DOCTYPE svg PUBLIC "-//W3C//DTD SVG 20010904//EN" "http://www.w3.org/TR/2001/REC-SVG-20010904/DTD/svg10.dtd">
<svg version="1.0" xmlns="http://www.w3.org/2000/svg" width="400px" height="502px" viewBox="0 0 4000 5020" preserveAspectRatio="xMidYMid meet">
<g id="layer101" fill="#58585a" stroke="none">
 <path d="M0 2510 l0 -2510 2000 0 2000 0 0 2510 0 2510 -2000 0 -2000 0 0 -2510z"/>
 </g>
<g id="layer102" fill="#dbb30b" stroke="none">
 <path d="M0 2510 l0 -2510 2000 0 2000 0 0 2510 0 2510 -2000 0 -2000 0 0 -2510z m3146 -1282 c10 -11 -16 -48 -39 -53 -12 -4 -52 -5 -87 -3 -65 3 -65 3 -65 33 0 28 3 30 45 35 47 5 136 -2 146 -12z m-2140 -83 c71 -308 195 -505 425 -682 98 -75 265 -147 383 -164 266 -39 515 25 722 187 123 95 228 224 300 366 39 77 45 80 154 76 l75 -3 -2 -34 c0 -18 -22 -74 -48 -124 -181 -352 -476 -585 -830 -657 -164 -33 -264 -34 -402 -6 -219 45 -359 110 -528 245 -98 78 -155 141 -234 256 -105 155 -170 312 -211 514 -17 84 -18 106 -8 113 7 4 51 7 98 6 l85 -3 21 -90z m2100 -80 c13 -33 -15 -45 -102 -45 l-84 0 0 30 0 30 90 0 c72 0 92 -3 96 -15z"/>
 </g>
<g id="layer103" fill="#fffffe" stroke="none">
 <path d="M0 2510 l0 -2510 2000 0 2000 0 0 2510 0 2510 -2000 0 -2000 0 0 -2510z m2317 2326 c68 -14 136 -32 153 -41 l30 -16 0 -1153 c0 -1132 0 -1154 20 -1178 29 -38 73 -53 110 -38 16 7 35 19 42 28 10 12 14 245 18 1138 3 617 9 1126 13 1130 20 21 274 -131 413 -246 284 -237 501 -570 583 -895 46 -182 53 -227 62 -370 11 -190 11 -1494 0 -1638 -8 -103 -10 -111 -47 -165 -40 -58 -103 -105 -164 -123 -19 -5 -113 -13 -209 -16 l-174 -6 -19 -34 c-24 -39 -42 -45 -128 -41 -61 3 -65 5 -68 28 -2 14 -11 31 -20 37 -12 10 -175 13 -737 13 -547 0 -724 3 -733 12 -9 9 -12 272 -12 1123 0 610 -3 1127 -7 1149 -4 28 -14 43 -37 57 -43 27 -83 18 -123 -28 l-33 -36 0 -1116 c0 -614 -3 -1126 -6 -1139 -6 -21 -11 -22 -119 -22 -141 0 -143 -1 -121 -102 67 -300 198 -509 427 -685 98 -75 265 -147 383 -164 266 -39 515 25 722 187 123 95 228 224 300 366 39 77 45 80 154 76 l75 -3 -2 -34 c0 -18 -22 -74 -48 -124 -181 -352 -476 -585 -830 -657 -164 -33 -264 -34 -402 -6 -219 45 -359 110 -528 245 -98 78 -155 141 -234 256 -106 155 -170 312 -211 515 -12 57 -25 109 -31 116 -5 6 -57 13 -121 17 -129 6 -220 31 -290 77 -111 74 -175 185 -190 333 -6 55 -8 400 -5 847 5 720 6 760 26 860 81 398 226 682 486 949 149 153 286 257 452 343 193 100 291 134 508 177 144 29 151 30 360 26 155 -3 213 -9 312 -29z m789 -3771 c13 -33 -15 -45 -102 -45 l-84 0 0 30 0 30 90 0 c72 0 92 -3 96 -15z"/>
 </g>

</svg>